<?xml version="1.0" encoding="utf-8"?>
<!-- Generator: Adobe Illustrator 18.0.0, SVG Export Plug-In . SVG Version: 6.00 Build 0)  -->
<!DOCTYPE svg PUBLIC "-//W3C//DTD SVG 1.1//EN" "http://www.w3.org/Graphics/SVG/1.1/DTD/svg11.dtd">
<svg version="1.1" id="Layer_1" xmlns="http://www.w3.org/2000/svg" xmlns:xlink="http://www.w3.org/1999/xlink" x="0px" y="0px"
	 viewBox="0 0 1400 980" enable-background="new 0 0 1400 980" xml:space="preserve">
<g>
	<rect width="1400" height="980"/>
	<g>
		<path fill="#F9EB3B" d="M521.2,63.7c-8.5,0.9-16.9,1.9-25.4,2.9c-15.8,1.9-31.5,3.9-47.2,6.4c-29.5,4.6-59.2,9.7-88.2,16.9
			c-1.1-1.4-2.4-2.7-3.8-3.9c-3.8-3.2-7.4-3.8-12.2-2.7c-7.9,1.8-13.8-2.1-21.1-4.2c-9.8-2.7-16.1,3.4-18.9,11.9
			c-1.9,0.7-3.7,1.4-5.6,2.1c-4.7-1.1-7.5-1.7-12.4,0.4c-7.2,3.1-12.6,7.6-21,7.4c-5.3-0.2-9.4-3.5-14.9-2c-3.3,0.9-5.8,3.3-8.5,5.4
			c-0.6-0.6-1.3-1.2-1.9-1.8c1.8-3.8,1.8-8.3,1.5-12.6c-0.5-6.4-1.7-12.7-5-18.3c-5-8.7-17-14.5-26.4-10.2
			c-4.3-2.2-8.5-0.3-12.2,2.8c-3.8,3.2-7.5,6.4-11.7,9.2c-3.4,2.3-7.2,3.5-10.9,5.2c-5.6,2.6-7.5,6.3-5.3,12.2
			c1.9,5.1,4.3,10.4,8.9,13.5c-3.1,2-5.5,5.1-7.8,8.1c-0.1,0.1-0.1,0.1-0.1,0.2c-6.3,6.2-12.3,12.8-18.1,19.4
			c-5.5,6.3-10.7,12.8-15.8,19.4c-2,2.5-3.9,5.1-5.7,7.7c-5.5,4.9-11.3,9.4-17.6,13.4c-1,0.6-1.1,2.1,0,2.7
			c6.3,3.5,11.3-1.7,14.7-6.6c1.7-2.4,3.4-4.8,5.2-7.2c6.6-6,12.7-12.6,18.4-19.5c5-6.1,9.8-12.4,14.5-18.7c0.8-1.1,1.6-2.2,2.4-3.4
			c3.7-3.8,7.5-7.5,11.4-11.1c-2.8,6.2-5.7,12.3-9,18.2c-4,7.2-9.4,13.6-14.8,19.9c-9.2,10.7-18.8,21.2-23.5,34.8
			c-0.5,1.5,1.3,2.6,2.5,1.9c6.1-3.3,8.1-10.2,11.4-15.9c4.2-7.4,9.8-13.9,15.1-20.6c4.8-6,9.4-12.2,13.1-19
			c3.3-6.1,5-12.9,8.3-18.8c1.4,1.2,2.7,2.4,4.2,3.6c-0.7,1.5-0.9,3.1-0.7,4.7c-3.8,3.7-7.9,7.5-10.7,11.8c-1.1,1.8-1.4,5.9-2.7,7.2
			c-1,1-3.2,2.2-3,4c0.3,2.4-1.3,3.7-1.3,5.8c0,3.8-1.3,6.6-2.7,10.2c-3.1,7.9-6.1,15.8-9.2,23.7c-0.1,0.2-0.1,0.4-0.1,0.5
			c-1-0.1-2.1,0-3.1,0.1c-0.7,0.1-1.2,0.9-1.2,1.6c-0.1,5.3,0.2,10.6,1.1,15.9c-1.6,2.3-1.9,6-3.4,8.2c-0.7,1-1.3,2.5-1.5,3.9
			c-1.9,1.3-3.7,2.5-5.6,3.8c-3.8,2.7-8.3,5.4-11,9.3c-1.8,2.6-3.4,5.3-5.7,7.6c-1.8,1.9-3.8,3.5-5.5,5.6c-3,3.7-4,8.9-5.6,13.4
			c-4,11.1-11.5,20.7-17.3,31c-3.2,5.7-5.5,12.6-4.1,18.9C87.3,311,82.2,323.6,73.8,334c-2.6,3.2-5.5,6-8.5,8.8
			c-1.9,1.7-4.3,4.1-4.2,6.9c0.2,2.7-6.1,5.4-5.7,8.6c-2,0.4-3.8,1.3-4.8,3.2c-2.5,4.6,0.3,8.8,0.7,13.6c0.5,6,0.9,12.1,1.3,18.2
			c0.2,3.2,0.8,4.8,4.3,4.9c5.1,0.1,7.8,5.9,13.1,5.4c2.7-0.3,3.6-3.7,3.1-5.9c-1.8-7-2.3-12.5-0.5-19.6c0.6-2.3,1.4-4.5,2.2-6.7
			c6.2,0.9,11,3.8,15.8,8.6c4.1,4.1,8,6.8,13.8,7.7c5.9,0.9,12.1-0.4,18-0.9c7.9-0.8,14.1,1.1,20.7,4.8c-1.1,1.8-2.6,4-2.6,5.9
			c0,3.3,3.9,4.2,6.5,3.6c5.8-1.3,10.4,4.1,16.1,1.8c1.3-0.5,2.5-1.9,2.9-3.2c1-3.4,1.7-6.8,3.2-10.1c2.4-5.6,4.9-10.9,6.5-16.9
			c2-7.2,3.2-14.7,4.9-22c2.3-9.8,5.1-19.4,8.4-28.9c1.7,1.7,3.4,3.4,5.1,5.1c3.2,3.2,6,6.7,8.3,10.6c2.8,4.8,3.3,10.6,4.7,15.9
			c2.5,9.8,11,13.9,17.7,20.5c3.2,3.1,5,7.5,8.5,10.3c3,2.4,6.2,0.3,8.8-1.5c9.1-6.4,17.5-13.8,25.7-21.3c4-3.7,8-7.5,12-11.3
			c3.5-3.3,2.1-6.8,1-11c-2.9-11.6-5-23.4-6.6-35.2c-0.6-4.2-0.2-10.7-3.1-14.2c-0.8-1-1.8-1.8-2.8-2.5c1.1-1.4,2.2-2.9,3.3-4.3
			c1.8-2.5,4.4-5.5,5.2-8.6c0.8-3.1,0.2-5.9-0.4-9c-1.1-5.2-2.3-13.6-7.6-16.3c-2.6-1.3-5.2,2-7.8,1.6c-3-0.5-5.8-1.7-8.4-3.3
			c3.2-4.6,6.5-10.5,2-14c-0.6-0.5-1.4-0.7-2.1-0.3c-8,4.5-17,5.5-25.9,3.2c-6.7-1.8-12.2-6.6-19-7.6c1.4-4.7,2.7-9.3,3.9-14
			c6.4,0.8,12.9,1.5,19.4,2.2c1,0.1,2.1-1,2-2c-1.1-10.4,3.6-20.7,4.8-31c1-9,0.9-17.6-0.8-26.3c7.9-7.9,21-4.9,30.9-8.9
			c7.8-3.1,14.6-10.2,16.9-18.3c2.8-1.5,5.7-2.8,7.7-5.2c1.5-1.8,2.1,0.1,4.1-0.4c1.8-0.5,3.3-2,5.1-2.7c3.3-1.3,5.3,0.9,8,2
			c5.9,2.4,11.2-1.9,14.6-6.5c1.3-1.8,3.1-4.3,2.5-6.7c-0.2-1-0.7-1.9-1.3-2.7c1.4-0.2,2.9-0.4,4.3-0.5c2-0.2,3.7-0.6,5.4-1.3
			c3.4,8,12.9,5,20.1,1.7c3-1.4,6-4,7.3-7.1c27.4-4.6,54.7-9.7,82-14.5c15.9-2.8,31.8-5.6,47.8-8.3c7.7-1.3,15.3-2.5,23-3.9
			c4.6-0.8,12.4-0.4,13.6-6.2C529.6,63.2,523.8,63.4,521.2,63.7z"/>
		<path fill="#F9EB3B" d="M1362,441.9c-1.9-2.8-5.1-4.5-6.2-8.3c-1.2-4.3-4.5-6.9-8-9.3c-4.4-3.1-7.5-7.2-11.8-10.5
			c-1.7-1.3-3.7-1.7-5.8-1.7c-4.2-6.4-9.6-12-16.9-15.3c-3.6-1.7-7.5-2.7-11.1-4.4c-4.3-2-7.6-5.4-10.7-8.9c-5-5.7-9-12.3-13-18.8
			c2-2.1,3.5-4.3,3.8-6.7c0.4-2.7-2.3-5.4-3.6-7.5c-2.5-4.3-4-9.1-5.7-13.8c-3-8.3-7.2-16-11.9-23.5c-3.6-5.8-7.7-9.1-13.2-11.4
			c0.9-1.2,1.5-2.3,1.5-3.5c0-2.7-1.6-3.7-1.8-6.5c-0.4-4.1-0.1-8.1-0.6-12.2c-1-7.3-3.8-21.2-12.1-23.7c-1.7-4.3-3.3-8.6-5.2-12.8
			c0-9.6-1.8-19.3-4.8-28.4c-1.8-5.4-4.2-12.1-8.1-16.4c-4-4.5-8.9-5.4-14.6-6.3c0.9-1.9,1.9-3.7,3-5.6c0.5,0.1,1,0.3,1.5,0.4
			c6.2,3.2,11.7,7.3,16.4,12.3c1.4,2.5,2.6,5.1,4,7.5c2,3.4,4.4,6.5,6.9,9.6c3.7,8.1,7,16.1,15.5,20.7c1.8,1,3.8-1,2.8-2.8
			c-4.4-8-10.5-14.7-16-21.8c-1.8-3.9-3.7-7.6-6.2-10.9c-1.1-1.4-2.3-2.8-3.5-4.1c-2.2-3.6-4.5-6.9-8.2-9.5
			c-3.2-2.3-7.2-3.8-11.2-4.9c0.3-0.5,0.5-1,0.7-1.5c5.1,1.7,9.5,4.1,13.8,7.5c0.1,0.2,0.3,0.4,0.5,0.6c0.5,0.4,1,0.7,1.5,1.1
			c0.5,0.4,0.9,0.8,1.4,1.2c7.2,6.5,13.2,13.1,18.3,21.4c7.2,11.7,16.7,25.8,32.5,24c2.5-0.3,2.6-3.9,0-4c-1.1,0-4.3-4.3-5.1-5.3
			c-1.9-2.1-4.2-3.9-6.4-5.7c-4.5-3.6-9.4-6.8-13.8-10.5c-4.8-4-8.1-9.2-12-14c-2.7-3.4-6.4-6.2-10.2-8.6c-2.2-1.8-4.4-3.5-6.6-5.2
			c-3.7-2.8-8-4.8-12.6-5.5c0.4-1.1,0.7-2.2,0.8-3.4c0.2-1.5,0.2-3,0.2-4.4c0.1-3.3,3-5.1,4.8-7.3c1.4-1.7,2.2-4.5,1.5-6.7
			c-2.5-7.8-10.3-8.9-16.7-12.5c-5.5-3.1-10.8-6.7-16.8-7.3c-3.1-3.2-7.4-4.9-11.7-3.8c-10.4-5-24,10.3-28.3,18.2
			c-5.4,10.1-10.5,28.7-1.6,37.8c-5.3,1.6-11.3,0-17.5-1.4c-5.1-1.2-8.8,0.1-11.2,4.9c-2.7,5.5-1.2,10.8,2.3,14.9
			c-1.7,0.2-3.5,0.5-5.2,0.7c-1.8-2.5-3.9-4.7-7-4.9c-3-0.2-7,1.6-9.9,2.1c-2.7,0.5-5.3,0.7-8,0.8c-0.1-0.7-0.4-1.4-0.8-2.1
			c-2-3.9-8.5-3.4-12-3.6c-11.4-0.8-18.6-17.9-30.9-11.9c-5.8-8.5-12.4-16.5-18.6-24.7c-14.2-18.8-24.5-40.3-37.8-59.7
			c-13.2-19.3-27.3-38-41.5-56.6c-3.1-4-6.1-8.1-9.4-12c-1.7-2-4.4-3.7-7.1-3c-3.8,1-4.2,4.5-3.5,7.8c-0.3,11.9,11.8,22.2,18.7,30.5
			c12,14.5,23.5,29.5,34.6,44.7c10.4,14.3,20.3,28.9,30.1,43.6c7.5,11.4,14.4,23.4,21.8,34.9c-3.6,4.5-2.3,11.2,0.6,16.4
			c2.3,4.1,5.8,8.4,10.1,10.3c2.6,1.1,5.1,0.5,7.6-0.4c3.2,2.4,6.5,4.9,9.6,7.4c2.1,1.7,4.1,4,6.3,5.9c-5.4,7.5,1.6,18.5,6,24.8
			c2.2,3.1,5,5.5,9.1,4.9c3.5-0.5,7.2-1.5,10.7-2.8c5.1,1.7,10.8,1,16.7,1.7c5.5,0.7,13.4,2.8,19.7,1.7c0.6,1.3,1.5,2.4,2.6,3
			c3.5,2,6.9,0.9,10.8,0.4c2.6-0.3,5.2-0.6,7.7-0.1c1.9,0.4,2.6,2.9,4.4,3.3c1.8,0.4,2.3,0.4,4.1,0.1c1.2-0.2,2.2-0.4,3.2-0.5
			c-0.2,6.4,0.2,12.9,2.3,18.7c2.1,6.1,6.1,12.7,10.7,17.8c-9.7,7.1-20.2,6.5-32.3,6.8c-2.4,0.1-7.8,0-9.2,2.5c-1,1.7-0.5,4,0.3,6.1
			c-1.9,0.5-3.9,1.1-4.6,1.4c-3.1,1.4-6,3.3-8.6,5.4c-5.7,4.5-10.5,9.7-13.8,16.2c-2.7,5.3-3.3,11.2-2.3,17.1
			c1.2,7.1,7.1,10.4,10.6,16.1c1.9,3,1.5,7.5,1.9,10.9c0.3,2.8,1.2,5.6,2.4,8.2c3.1,6.9,7.7,12.9,11.5,19.5c4.3,7.4,6,15.3,7.3,23.6
			c0.6,3.6,3.4,4.3,6.5,4.3c-1,5.4-1.8,12.5,2,14.9c3.4,2.2,7.7,1.8,11.6,1.5c3.7-0.2,6.4-1.6,9.8,1.2c1.3,1.1,2.5,2.2,3.9,3.2
			c5.2,3.8,10.6-0.7,12.4-5.6c1.4-3.8-0.2-7.8-2.6-11.6c1.6,0.5,3.3,0.9,5.2,0.9c6,0,12.1-4.5,16.7-7.9c4.9-3.7,7.7-8.6,9.8-13.9
			c8.2,5.7,15.2,13.2,22,20.4c9.2,9.7,15.3,21.6,24.9,31c9.4,9.2,18.3,16,31.6,18c6.7,1,13.6,0.8,20.4,0.7
			c6.9-0.1,13.9,0.6,20.8-0.3c0.3,0,0.6-0.1,0.9-0.3c1-0.1,2.1-0.3,3.3-1c2.4-1.4,4.2-4.3,5.5-7.1c0.7-0.8,1.3-1.5,2-2.1
			c2.4-2.3,4.9-4.4,7.6-6.3c-0.9,1.3-2.1,2.4-3.5,3.5c-1.7,1.3-3,2.3-4.1,4.1c-1.5,2.4,0.6,5.7,3.1,6.3c5.3,1.2,11.4,0.8,16.9,0.7
			c4.3-0.1,6.9-5.2,9-8.2c3.3-4.7,4.7-9.7,5.1-15.4c0.6-6.7,3-13,3.5-19.7C1378.8,442.8,1369.6,441.6,1362,441.9z"/>
		<path fill="#F9EB3B" d="M608.6,139.3c-4.9-1.6-8.1,5.1-9.7,8.2c-7.2,13.8-16.8,26.2-26.2,38.5c-10.1,13.3-20.2,26.7-30.2,40.2
			c-8.2,11-16.6,22-24.5,33.2c-0.9,0-1.8,0.1-2.7,0.4c-1.7,0.1-3.2,0.5-4.6,1.2c0-2.5-0.2-5-0.5-7.4c-0.5-3.6-1.5-7-2.9-10.4
			c-1.8-4.3-2.5-8-2.3-12.6c0.3-10-2.3-19.6-7.3-27.9c-0.5-4.2-1.2-8.4-1.9-12.6c3.7,0.3,7.5,0.3,11.1,0.1c1-0.1,1.9-1.2,1.2-2.2
			c-2-3.1-4.6-5.6-7.3-8.1c-3.2-2.9-5.5-6.1-8-9.6c-1.5-2.2-3.9-2.8-6.5-3.1c-1.7-0.2-3.3-0.4-4.8-0.7c0.3-0.4,0.7-0.8,1-1.3
			c5.5-7.3,7.8-15.2,7.8-24.4c0-7.9-0.8-16.5-6.5-22.4c-2.9-3-6.7-4.8-10.7-5.8c-1.5-4.8-5.8-8.1-10.6-10.1c-4.7-1.9-9.7-3-14.7-3.9
			c-3.8-0.6-7.4-1.1-11,0.6c-3.1,1.5-5.3,5.4-7.2,8.1c-2.6,3.5-4.7,7.2-6.1,11.4c-1.3,3.8-1.2,8-0.1,11.8c1.3,4.4,5.4,8.3,3.6,13.2
			c-0.3,0.9,0.4,1.7,1.1,2c0.8,0.3,1.3,0.7,1.8,1.2c-5.6,6.6-11.8,12.7-18.8,17.8c-4.1,3-8.4,5.6-12.9,7.9c-3.2,1.7-7,2.3-5.8,6.7
			c0.9,3.5,5.5,7,8.1,9.2c3.1,2.5,6.6,4.4,10.3,5.8c-5.1,6.6-9.2,14-9,22.7c0.1,6,2.1,11.9,3.8,17.6c-1,4.1-1.9,8.3-2.5,12.5
			c-3.1-0.7-6.7-1.2-7.9,2c-2.7,7.5-3.8,15.9-4.9,23.8c-0.7,4.9-1.7,10.6,1.8,14.8c1.8,2.2,4.2,3.8,6.8,5c-0.5,2.3-0.8,4.7-1.3,7
			c-1,4.4-2.2,8.6-3.5,12.9c-2.8,8.9-6.7,17.4-11.4,25.4c-2.7,4.6-5.6,8.8,1,11c3.8,1.3,7.6,2.4,11.4,3.5c0.4,1.4,0.9,2.7,1.3,4.1
			c1.5,4.2,4.2,8,6.4,11.9c1.8,3.1,3.4,6.2,4.9,9.4c-5.4,23.9-12.6,47.4-18.2,71.2c-1.7,7.3-3.1,14.6-4.3,21.9
			c-0.8,5.1-1.1,9.6,3.5,12.9c1.1,0.8,2.3,1.4,3.6,1.8c-1.2,4.3-2.3,8.8-1.9,13c0.5,5.2,5.8,7.1,10.3,7.1c4.1,0,8-1.7,12.2-1.1
			c3.6,0.5,7,2.7,10.5,3.8c4.3,1.3,9.2,1,13.5-0.4c0.5,0.9,0.9,1.8,1.4,2.7c0.5,1.1,1.2,2.4,2,3.7c-3.2,6.1-5.7,13.9,1.9,16.1
			c6,1.7,12.7,2.1,18.9,2.8c5.8,0.7,12.1,2.1,17.8,0.4c2.9-0.9,5.3-2.4,8.4-2.5c2.3-0.1,3.9,0.5,6.1-0.7c2.5-1.4,2-5.2-0.4-6.4
			c-1.9-0.9-3.9-1.3-6-1.7c-3.2-0.7-6.3-2.1-9.3-3.6c-1.8-1-3.6-2.1-5.2-3.4c5.4-0.7,10.9-1.6,16.3-2.4c2.2-0.4,3.6-2.3,4.5-4.6
			c1.3,0.4,2.6,0.9,3.8,1.3c0.7,0.3,1.5-0.4,1.5-1.2c-0.4-12-1-23.8-0.8-35.9c0.3-11.9,0.4-23.8-1.5-35.6
			c-1.9-11.9-7.2-22.5-6.8-34.7c0.2-5.3,0.3-10.3-0.8-15.4c-0.9-4.5-2.7-8.7-4.7-12.8c3.6-0.3,7.1-1,10.6-2.1c1-0.3,1.4-1.4,0.9-2.3
			c-11.1-21.5-17.2-45.1-19.5-69.2c0.1-0.3,0.2-0.7,0.3-1c0.8-2.6,1.7-5.1,2.4-7.7c0.1,0.5,0.2,1,0.3,1.5c0.5,2.6,1.9,6.3,1.3,8.9
			c-0.8,3.3-1.9,6-1.2,9.5c1.3,6.4,6.1,11.8,12.8,12.6c12.7,1.6,26-15.5,15.7-25.9c0.3-0.7,0.6-1.4,0.9-2.1c2.2,0.9,4.4,2,6.8,1.9
			c3.3-0.1,5.8-1.4,8.2-3.7c3.8-3.6,7.7-11.5,4.8-16.5c3.1-2.9,4-7.8,1-11.5c-0.4-0.5-0.9-1.1-1.4-1.6
			c13.7-19.6,26.5-39.9,40.8-59.1c7.9-10.7,16.2-21.2,24.1-31.9c3.8-5.2,7.4-10.4,10.9-15.8c2.4-3.7,4.9-7.5,6.4-11.7
			c0.1,0,0.2-0.1,0.2-0.1C613.4,143.7,611.7,140.3,608.6,139.3z"/>
		<path fill="#F9EB3B" d="M991.7,367.3c-5.4-3.8-11.7-6.6-17.5-9.7c-6.3-3.4-12.6-6.8-18.9-10.2c-5.9-3.2-12-6.2-17.8-9.9
			c-5.2-3.3-9.2-7.9-14.5-11.1c-2.4-1.5-4.7-3.2-6.8-4.9c0-0.4,0.1-0.8,0.1-1.1c0.5-4.7,0.2-9.4-0.1-14.2
			c-0.3-5.4,0.4-10.7,0.3-16.1c-0.1-5-3.4-8.8-7.2-11.8c0.1-1.5-0.8-3.3-1.2-4.5c-0.5-1.4-1.7-5.5-3.5-6.3c0.1-3.4,0.3-6.8,1.1-10.1
			c1.3-5.1,1.2-10.2,2.5-15.3c0.2-0.9-0.3-1.7-1.1-2c-1.9-0.5-3.7-0.7-5.6-0.7c0.4-1.7,1.2-3.4,1.7-4.9c0.7-2.3,0.1-4.7-0.1-7
			c-0.3-2.5,1-4.6,1.3-7c0.3-2.6,0-5.2-0.1-7.8c-0.4-9,6.5-16.9,3.7-26c3-0.7,5.8-2,8.5-3.7c4.1-2.7,9.1-8.1,4.6-12.6
			c-2.3-2.3-6.9-3-9.7-4.6c-3.9-2.2-7.3-5.3-10.2-8.6c-3.9-4.5-7.2-9.6-12-12.9c-0.1-0.3-0.2-0.7-0.4-1c-4.5-5.7-3.7-11.6-1.3-18
			c0.9-2.4,1.2-4.8,1.3-7.3c0.2-4.3,1-7.3,3.1-11c2.2-3.8,2.2-8.3,0.2-12.2c-1.8-3.5-4.7-8.8-8.9-9.9c-4.4-1.2-8.1,0.1-12.1,1.8
			c-7,3-13.9,4.3-21.5,4.9c-5.9,0.5-14.1,3.5-14.9,9.7c-8.1,7.6-8.8,20.5-6.4,31c2,8.8,9.6,19,18.9,22.3c-5.2,1.7-10.1,4.6-15.1,6.5
			c-2.3,0.9-4.7,1.4-7.2,1.5c-2.7,0.1-5.1-1.1-7.7-1.2c-1.5-0.1-3.1-0.1-4.4,0.7c-1.5,0.9-1.9,2.4-2.6,3.7c-1.4-1-2.9-1.7-4.8-2.1
			c-2.5-0.5-4.6,1.4-6.8,2.2c-3.3,1.2-8.4,0.3-11.8,0.2c-4-0.1-7.9-0.3-11.9-0.5c-7.9-0.4-15.8-1.2-23.7-2.2c-3-0.4-4.2,2.3-5,5.2
			c-5.7,0-11.8-0.2-17-2.5c-4.4-2-7.1-5.3-12.3-5.6c-5.8-0.4-14.7,0.1-20.8,3.3c-25.7-19.5-51.5-39-77.2-58.4
			c-13.8-10.4-27.5-20.9-41.4-31.2c-3.2-2.4-6.4-4.7-9.6-7.1c-2.8-2.1-5.8-4.9-9.1-6.1c-2-0.8-4.1-1.1-5.9-0.6c0,0,0,0,0,0
			c-3.6,0.2-5.3,3-5.4,6.4c-0.2,5.7,8.1,9.8,11.8,12.5c15.1,10.8,30.4,21.3,45.7,31.9c28.4,19.7,56.8,39.3,85.2,58.9
			c-2.9,6.9,3.2,12.7,9.1,17c6,4.4,14.8,7.2,20.6,1.5c1.3,0.9,2.6,1.8,3.9,2.6c-0.2,0.4-0.5,0.7-0.7,1.1c-2,4,0.6,8.7,3.2,11.6
			c2.8,3.1,8.7,7.1,13,7.3c3.1,0.2,5.8-0.9,8.4-2.2c1.9,2.4,4.8,4.9,5.9,6.1c4,4.1,10.2,10,16,11.1c5.3,1,5.5-4.6,4-7.9
			c-1.5-3.1-4.5-5.5-6.9-7.7c-2.3-2.1-4.5-4.3-6.8-6.4c1.6-0.8,3.2-1.5,4.9-2.2c1.4-0.5,3-0.8,4.5-1.3c1.3,3.3,2.2,6.3,7.7,5.6
			c3.5-0.4,5.6,12.5,7.1,14.6c2,2.8,3.9,2.5,7.1,1.6c5.6-1.5,11.2-3,16.8-4.6c2.1-0.6,5.9-2.6,7.8-0.7c1.4,1.3,2.5,1.9,4.4,2.3
			c2.1,0.4,4.5,0,6.9-0.7c-3.4,15.6-3.6,31.8,2.3,46.8c-12.3,0-24.6,2.7-36.2,6.3c-6.7,2.1-13,3.2-19.9,3.5
			c-5.7-0.6-12.1,0.2-16.6,3.2c-5.4,3.7-6.8,11.4-7.9,17.3c-3.7,20-9.4,39.1-16.7,58c-3.5,9.1-7,18.2-9.6,27.6
			c-0.6,2.1-2.5,6.2-1.2,8.4c1.5,2.5,5.2,3.6,7.6,4.8c6.4,3.4,12.7,7.1,19.2,10.3c-2.8,1-5.5,2-8.4,2.8c-3,0.8-10.3-0.3-12.6,2.6
			c-1.9,2.4-2.1,4.6,0.2,6.9c0.8,0.8,2.6,1.4,3.7,1.3c4.4-0.1,7.2,0.9,11.1,2.8c4,1.9,8.7,0.9,12.8-0.2c6.7-1.8,12.8-3,19.7-2
			c3.6,0.5,8.1,1.9,11.3-0.7c0.7-0.6,1.3-1.2,1.8-1.9c4.3,1.4,10,0.8,14.4,1.1c5.6,0.3,11.3,0.8,16.9,1c3.1,0.1,6.1-0.7,8.1-2.9
			c2.7-2.9,0.3-8.1,0.9-11.5c0.4-2.2,2.6-2.9,3.7-4.5c1.1-1.5,1.3-3,1.4-4.8c0.3-5.8,4.9-10.5,8.5-14.7c0.9-1,1.8-2,2.7-2.9
			c0.2,6.3,1,12.5,2.6,18.7c3.1,12.2,10.2,25.3,24,26.7c7.4,0.8,14.6-0.8,21.9-2c9.2-1.5,17.8,0.1,26.7,2.4c12.8,3.3,26.7,6.8,39,0
			c2.3,0.6,4.5,1.3,6.8,2c1.6,0.5,4,0.4,4.9-1.3c2-3.5,0.1-6.4-2.5-8.7c1.5-0.2,3-0.6,4.4-1.3c3-1.5,2.6-5.8,2.3-8.4
			c-0.6-4.9-1.9-9.7-2.7-14.5c-1.2-6.9,0.5-12.8,1.9-19.4c0.5,0.3,1,0.6,1.5,0.9c2.5,1.6,5,3.2,7.5,4.8c2,1.3,4.3,3.5,6.8,3.7
			C997.4,381.8,997.2,371.1,991.7,367.3z"/>
		<g>
			<path fill="#F9EB3B" d="M338,844.5c-2.7-3.2-5.6-6.2-7-10.2c-1.3-3.5-0.7-7.6-1.2-11.2c-1-7.4-5-14.3-7.4-21.3
				c-2.3-6.8-3.7-13.8-4.5-21c0.1-1.5,0.1-3,0-4.6c-0.4-4-2.1-7.7-2.4-11.8c-0.6-7-1-12.5-4.3-18.9c-1.6-3.1-3.3-6.2-5-9.2
				c-0.1-2.5-0.2-4.9-0.4-7.4c-0.2-5.3-0.2-9.9-3.3-14.4c-2.5-3.8-5.4-7.3-8.3-10.9c0.1-2.8,0.1-5.5-0.1-8.2
				c-0.6-6.3-5.9-12.4-9.4-17.3c-0.1-0.2-0.3-0.2-0.4-0.3c2.2-6.7,6.5-12.4,9-19.2c1.5-3.9,2.4-8.2,2.8-12.4
				c0.4-3.3-1.1-12.9,2.2-15.1c0.9-0.6,1.1-1.8,0.3-2.6c-4.7-4.5-8.7-9.6-12.8-14.6c1.3-2.3,2.4-4.7,3.1-7.2
				c0.9-2.8,1.1-5.6,2.3-8.3c0.9-2,2.7-3.4,3.7-5.4c1.5-3-1.4-6.3-3-8.6c0-0.1-0.1-0.1-0.1-0.2c3.6-3.9,6.8-8.3,8.6-13
				c3.3-9.2,1.2-19.8,1.8-29.5c0.3-4.6,1.4-9.2,1.5-13.9c0.1-3.6-3.5-6.3-5.8-8.6c-4.6-4.7-10-10.8-17-6.8c0,0-0.1,0.1-0.1,0.1
				c-6.1-4.1-12.1-8.5-17.8-13c0.2-1.3,0.4-2.6,0.4-4c0-3.7-2.5-6.2-4.2-9.2c-2.7-5-7.8-5.9-13.1-6.5c-2-10.4-13.7-11.9-22.8-9.8
				c-8.1,1.8-14.3,6.6-15.3,13.8c-6.4-0.6-12.8-1.5-19.2-2.4c3.1-3.7,4.6-8.5,0.6-12.3c-4.7-4.5-12.3-3.9-17.5-0.7
				c-2.8,1.7-5,4.6-7.2,7.1c-24.9-4.9-49.7-9.8-74.6-14.6c-15.3-3-30.7-5.9-46.1-8.6c-6.9-1.2-21.1-5.8-27.3,0.2
				c-0.1,0-0.1,0-0.2,0.1c-0.9,0.5-1.6,1.6-1.7,2.7c-0.1,0.2-0.2,0.3-0.2,0.5c-0.2,0.5,0.1,0.9,0.6,1c0.1,0.2,0.2,0.3,0.4,0.5
				c3.6,3.7,11,3.8,15.8,4.9c15,3.2,30,6,45.1,8.9c27.8,5.4,55.6,11.3,83.4,16.2c-0.2,3.2-0.8,6.6-0.1,9.6c0.2,0.8,1,1.6,1.6,2.1
				c1.4,1.4,3,2.7,4.5,3.9c-1,1.8-1.8,3.7-2.4,5.8c-1.7,5.4-3.9,10.7-6.6,15.7c-1.6,3-4.6,7.2-3.7,10.9c0.6,2.6,2.2,4.6,4.1,6.5
				c-0.6,4.9-0.9,9.8-1,14.7c-9.7,6.3-2.9,20,2.2,27.2c2.2,3.1,4.6,6.1,7,9.1c1.6,2,3.7,5.6,6.4,6.2c3.5,0.8,6-0.4,8.3-2.3
				c-0.1,0.6-0.1,1.1-0.2,1.7c-0.4,2.5-0.9,4.7,0.7,6.9c1.1,1.5,3.3,2,5,2.6c2.8,0.9,3.7,3.8,5.9,5.4c-1.7,11.4-2.1,22.8-0.9,34.5
				c0.3,3.5,0.7,6.9,0.5,10.4c-0.1,2.4-0.9,4.6-2,6.7c-0.5,0.9-1.2,2.3-1.1,3.3c0.4,3.7,2.5,5.6,5.4,6.7
				c-7.4,13.9-17.2,26.3-24.4,40.4c-3.8,7.4-6.2,15.5-6.6,23.8c-0.3,5.3,3.7,6.4,7.6,5.7c-7.9,26.4-17.8,52.4-21.2,79.9
				c-2.3,17.9-1.4,35.9-2,53.9c-0.2,4.5-0.5,9-0.9,13.5c-0.2,2.4-1.7,6.7-0.3,9.2c0.8,1.4,2.4,2.3,4.1,2c2.1-0.4,4.2-1,6.3-1.6
				c-0.9,0.9-2,1.7-3.1,2.4c-2.7,1.7-7.1,1.2-8.9,4.3c-4.5,7.7,9.3,10.6,13.7,11.3c4,0.6,7.4-0.6,10.7-2.7
				c5.6-3.5,10.1-4.8,16.6-2.9c6.9,2,11.5,0.3,13.7-5.2c3.9,2,7.9,3.9,11.8,5.8c4,1.9,8,4,12.5,2.5c2.9-1,4.9-4.2,4.1-7.2
				c-0.9-3.9-1.4-7.8-1.7-11.7c0.2,0,0.5,0,0.7,0c0,1.6,0.1,3.1,0.8,4.7c0.9,2.2,4.9,1.8,6.6,1.9c2.8,0.2,5.7,0.2,8.5,0.1
				c-0.2,3.5-0.7,8.2,1.3,10.5c2.4,2.8,6.4,2.6,9.9,2.8c5.3,0.3,10.1,0.5,14.8,2.5c0,0.3,0.1,0.5,0.1,0.8c0.8,4.8,11.1,6.8,14.6,7.1
				c6.3,0.4,3.4-7.1,2.5-10.7c-0.6-2.6-1.2-5.3-1.7-8c3.4-2.7,5.7-6.6,8.7-9.8c3.1-3.3,7.4-4.1,11.6-5c3.7-0.8,7.1-2,10.6-3.5
				c0.3-0.2,0.7-0.3,1-0.5c-0.3,2-0.9,4-1.9,6c-1.5,2.9-6.2,5.5-6.7,8.8c-0.2,1.5-0.2,4.1,1.8,4.6c1.5,0.4,2.7,0.4,3.9,0.3
				c0.2,0.6,0.8,1,1.3,1.2c2.8,0.8,6.1,0.2,9,0.1c3.3-0.1,7,0.2,10.3-0.8c4.4-1.4,6.1-10.6,7.1-14.3c1.9-7,3.8-13.7,6.1-20.5
				c1.4-4.2-1.8-6.5-5.3-7.8c2-2.7,3.8-5.5,5.4-8.3c0.2-0.3,0.2-0.5,0.3-0.8c0.1-0.1,0.1-0.3,0.2-0.4
				C348.5,853.7,341.1,848.1,338,844.5z M186.5,547.9c-1.3,0.9-2.6,1.8-3.9,2.7c-1.4-1.6-2.8-3.2-4.2-4.8c2.4-3.8,3-9.3,3.3-13.8
				c0.5-6.7,2.3-13.1,3.7-19.6c0.4-1.7,0.3-3.4-0.2-5c2.2-1.9,3.7-4.4,4.3-7.5c0.8-3.9-1-6.4-2.7-9.3c5.6,1.6,11.3,2.9,17,4
				c-5.1,10.3-4.8,23.3-1,34.4c-2.3,2.1-4.8,4-7.6,5.6c-2.5,1.4-10.5,2.6-11.1,6.5C183.8,543.6,184.8,545.9,186.5,547.9z"/>
		</g>
		<g>
			<path fill="#F9EB3B" d="M838.4,461.1c-12,10.3-24.1,20.5-36.1,30.7c-24,20.5-49,40-72.2,61.4c-0.7,0.7-1.5,1.4-2.2,2.1
				c-2.7-2.1-6.9-5-10.1-3.3c-2.1,1.1-1.7,3.3-0.9,5.3c-1-0.1-1.9-0.2-2.8-0.3c-5.8-0.5-11.3,3.2-15.1,7.4
				c-6.6,1.6-13.1,3.6-19.6,5.5c-2.9,0.9-8.3,1.5-10.6,3.6c-1,0.9-1.3,2.1-1.3,3.4c-0.2,0.1-0.4,0.2-0.5,0.3
				c-0.4,0.2-0.8,0.5-1.2,0.8c-0.3-0.5-0.6-1-1-1.5c-0.5-0.7-1.6-0.5-2.2-0.1c-2.4,1.8-4.3,3-7.4,2.9c-0.6,0-1.6,0-2.2,0.3
				c-1.9,0.8-2.9,2.1-4.1,3.8c-2.1,2.8-6,2.7-8.9,3.8c-2.2,0.9-3,2.5-5.6,2.8c-5.1,0.6-9.6,5.5-13.2,8.8c-3.8,3.5-8.1,5-12.7,6.1
				c5.2-4.4,8.9-10.2,6.7-15.6c-0.3-0.7-1.2-0.7-1.7-0.3c-1.9,1.8-4,3.2-6.3,4.2c0.7-1.2,1.3-2.4,1.8-3.6c3-7.5,0.5-16.4-1.4-23.8
				c-3-11.4-12-28.1-25.9-22.7c-4.6-3.3-11.7-0.5-16.8,1c-5.8,1.7-11.6,3.4-17.4,5.1c-4.3,1.3-10.3,1.9-14,4.5
				c-6.6,4.7-1.4,13.8,1.1,19.4c2.5,5.5,6.4,10.9,11.6,13.9c-15.1,5.5-20.5,23-25.7,37.1c-3.3,6.3-6.6,12.7-10,19
				c-2.6,3.1-5.6,5.7-8.4,8.5c-5,5.1-8.4,12.9-3.9,19.3c0.6,0.9,2,0.9,2.3-0.2c2.7-8.9,7.1-17.4,11.7-25.8c4-4.8,6.7-10.5,9-16.2
				c0-0.1,0.1-0.2,0.1-0.3c3.8-7.2,7.6-14.5,11.4-21.7c3.2-6.1,6.6-15.1,13.9-16.8c0,0,0,0,0,0.1c-10.1,14.9-18.9,30.8-27.8,46.4
				c-7.3,12.8-13.8,26.6-12.2,41.7c0.1,1.3,2.1,1.5,2.7,0.5c2.6-4.2,3.5-8.7,4.4-13.5c1.1-6.3,2.9-12.5,5.1-18.5
				c2.3-6.1,5.3-11.6,8.7-16.9c-1,6.6-0.4,13.4,1.4,19.8c-1.6,4.9-1.9,10-1.2,15.1c-1.6,0.1-3.2,1-4,2.6c-3,5.9,0.3,12.3,0.3,18.5
				c0,7.6-4.9,13.4-5.9,20.7c-0.1,0.4-0.1,0.8-0.1,1.2c-5.6,1.6-9.5,7.3-8.6,13.3c-0.5,0.6-1,1.2-1.5,1.9c-2.9,4.2-5.5,8.6-8.2,12.9
				c-5.7,9-11.4,18.1-16.8,27.3c-6.3,10.8-11.7,21.9-16.6,33.2c-10.1,10.3-19,22-26.6,34.1c-8.2,13-13.8,27.3-20.3,41.2
				c-2.9,2.3-5.8,4.7-8.8,7c-3.1,2.5-7.9,5.1-10,8.5c-1,1.6,0.5,4.7,1.1,6.1c0.6,1.7,1.4,3.4,2.2,5c-2.4,0.6-4.9,0.9-6.8,2.8
				c-2.1,2.1-1.1,5.4-0.1,7.7c1.5,3.6,3.3,6.7,2.3,10.8c-0.6,2.2-2.8,4.3-3.9,6.3c-1.6,3-1,6.4,0.1,9.5c-1.6,3,0.8,5.7,3.9,8.3
				c4.5,3.8,10.3,5,15.9,3.1c5.4-1.9,3.1-5.3,0.7-8.7c-2.7-3.9-0.2-9.9,1.2-13.8c0.7-1.8,1.3-3.6,1.7-5.4c1.1,0.5,2.2,1,3.3,1.4
				c9.3,4.5,18.4,9.1,27.3,14.5c8.6,5.3,18.5,6.6,28.4,8.3c2.5,0.4,6.4,1.8,8.2-0.9c3.2-4.8,5.8-10.1,8.5-15.3
				c0.6-1.2,1.3-2.4,1.9-3.6c0.3,0.1,0.7,0.2,1.1,0.1c4.7-1.2,10.3-2.1,14.5-4.5c2.9-1.6,3.2-7.1,4.1-9.8
				c4.1-11.9,11.5-23.3,17.2-34.5c5.6-10.8,11.1-21.5,18.2-31.5c1.9-2.6,3.7-5.3,5.3-8.1c1.4,2.2,3.1,4.1,5.1,5.9
				c5.5,4.6,13.1,4.4,18.5,9.3c8.2,7.4,11.4,20.7,22.5,24.3c-0.2,1.7,0,3.3,0.3,5.1c0.2,0.9,1.1,1.5,2,1.3c2.1-0.5,11.6-7,12-2.3
				c0,0.5,0.6,1.1,1.1,1.2c1.3,0.3,2.5,0.3,3.6-0.7c0.7-0.7,1.3-1.5,1.9-2.3c1.9-2.6,4.3,2,5.3,3.3c0.5,0.7,1.6,1.1,2.3,0.4
				c7.2-7.2,8.9-17.8,15.7-25.3c3.6-4,9.5-5.5,14-8.4c1.7,4.5,3,9.1,4,13.9c1.4,6.6,0.9,16.1,5.6,21.4c4.1,4.7,11.5,0.3,14.9-2.9
				c2.9-2.7,5-6.2,7.7-9.1c3.5-3.7,8.6-4.9,13.2-6.6c3-1.1,5.7-2.6,8.2-4.7c2.7-2.3,3.6-5.9,6.2-8.3c1.4-1.4,1.3-3.4,0.3-4.8
				c-1.2-1.7-3.9-1.3-5.7-1.1c-4.2,0.6-7.2,4.6-11.2,5.9c-4.3,1.4-8.2-1.2-12.4-1.2c-1.7,0-3.5,0.4-5.2,0.5
				c-3.4,0.1-4.7-5.4-5.5-7.6c-0.8-2.2-1.5-4.4-2.3-6.7c0,0,0.1,0,0.1,0c4-1.8,6.2-5.3,8-9.2c2.9-6.2,5.9-11.2,12.1-14.5
				c5-2.7,9.9-2.3,13.7-7c2-2.5,3.9-3.4,6.5-5c1.7-1,1.5-3.7,1.5-5.3c0-4.3,1.3-10.7-2.1-14.1c-1.1-1.1-2.9-1.3-4.4-1.5
				c-3.1-0.4-5.9-0.4-8.9-1.5c-6.1-2.2-10.9-7.1-15.3-11.7c-3.5-3.7-7.6-4.2-12.2-3.8c-0.3-2.1-0.7-5-2.5-5.6
				c-2.6-0.8-6.1,1.1-8.9,2.3c-2.1-4.3,3.1-9.9-0.9-14.3c-1.1-1.2-2.5-1.6-4.1-1.5c-2.2,0.1-2.5-2.6-3.5-4c-0.7-1-2.3-1.1-3.4-1.2
				c-3.1-0.2-5.1,0.9-7.5-2.3c-1.1-1.5-2.7-2.2-4.4-2.4c1.3-2.9,2.2-6,3.1-8.8c0.4-1.3-0.9-2.3-2.1-1.7c-13.9,6.2-29.3,8.1-44.2,6
				c6.9-1.9,13.8-4,20.7-6c5.4-1.6,10.8-3.2,16.2-4.9c3.7-1.1,7.2-2.5,9.8-5.5c0.7-0.9,0.6-2.2-0.6-2.6c-5.8-2.1-11.7-4.3-17.5-6.4
				c-3.3-1.2-5.3-1.7-7.5,1.2c-6.3,8.5-14.8,16.5-25.5,16.6c5.3-12.6,7.9-26.1,10.8-39.5c2-9.3,4.1-18.7,3.2-28.1
				c5.2-0.7,10.3-1.6,13.5-6c2,1.3,4,1.6,6.1-0.2c2.5-2.1,3.9-3,7-3.7c1.9-0.4,3.8-0.6,5.6-1.4c5.6-2.5,7.2-8.9,7.2-14.9
				c2-1.4,4.1-2.8,6.1-4.2c3.6-2.5,8.1-6.9,12.8-5.6c4.5,1.2,7.1,4.4,12,2.4c1.7-0.7,2.9-2.8,3.8-4.3c1.7-2.9,3.1-5.9,4.7-8.8
				c1.9-3.5,2.6-7.9,0.5-11.3c5.2-3.7,10.8-6.9,16.4-10.2c0.8,0.2,1.7,0.4,2.5,0.6c2.2,0.5,4.5,2.1,6.8,2c4.3-0.2,7.2-2.4,10.3-5.1
				c3.6-3.2,7.7-6.9,8.5-11.1c2.3-0.9,4.7-2.7,3.9-5.3c-0.4-1.2-1-2.4-1.7-3.5c22-18.5,44-36.9,66-55.5c12-10.1,24-20.4,36.1-30.4
				c5.8-4.8,11.5-9.5,17.3-14.3c3.5-2.9,10.1-6.3,8.8-11.7C861,441.3,841.1,458.8,838.4,461.1z M547.3,592.7
				c0.3,1.4,0.8,2.7,1.3,4.1c-0.4,1.3-0.8,2.5-1.3,3.8c-0.8,2.4-1.7,4.7-2.4,7.2c-2.7,2-5.6,4.2-7.9,6.6c-0.5-0.2-1.1-0.3-1.5,0.2
				c-0.2,0.2-0.3,0.3-0.5,0.5C539.3,607.6,543.4,600.2,547.3,592.7z"/>
		</g>
		<path fill="#F9EB3B" d="M787,914.2c0.1-0.2,0.1-0.3,0.2-0.5c0-0.4,0.1-0.8,0.3-1.1c4.7-14.9,2.5-31.3,3.3-46.7
			c0.9-17.3,3.6-34.4,5.9-51.5c2.2-16.5,3.8-33,3.4-49.6c-0.3-12.6-0.6-24.5,3.9-35.7c-2.4-1.6-4.4-3.5-4.9-6.4
			c-0.6-3.3,3.5-6.4,5.1-8.8c2.6-3.6,5.3-16.1,11.8-13.8c0.4-0.6,0.9-1.3,1.5-1.9c2-2.1,3.9-2.2,4.4-5.9c0.3-2.3-0.5-4.8-0.9-7.1
			c-0.2-1-0.3-1.9-0.5-2.9c-2.6,0-5.1,0-7.7-0.2c-1.1,0-2-1.3-1.3-2.3c3.1-4.7,5.1-9.8,6.6-15.1c-2.2-0.5-4.3-1.2-6.5-2
			c-1.4-0.5-1.8-2.3-0.4-3.2c7.8-4.8,2.9-16.7,4-24.1c0.7-4.5,1.9-8.8,3-13.2c1.2-5.2,1.1-10.3,0.7-15.6c-0.7-9.9-1-19.9-0.6-29.8
			c0.1-3.4,1.3-8,4.5-9c-0.2-0.5-0.3-1.1-0.4-1.7c-0.3-2.3,1.4-2.1,0-4.5c-1.1-1.9-1.8-4-2.4-6.1c-1.7-5.8-1.6-16.7,4.7-20
			c3.2-1.7,6.1-1.3,9.4-0.3c6.1,1.9,11.8,2.1,18.1,1.2c8.2-1.2,14.8,0,21,4.8c5.1-0.5,9.8,2.1,13.2,6.2c5,6,5.4,14.8,5.7,22.2
			c0.4,9.3-5,25.7-15,28.6c2.3,5.8,5.7,10.9,12.5,9.9c3.3-0.5,9.3-5.8,11.5-0.7c1.6,3.7-4.8,6.9-7.2,7.9c-4.4,1.8-8.8,2.6-13.2,1.8
			c1.1,1.4,2.1,2.8,3.2,4.2c1,1.4,3.4,3.5,2.9,5.5c-0.1,0.5-0.5,1-0.9,1.4c-2.1,2.1-1,3,0.2,4.7c0.8,1.3,0.8,2.5,0.3,3.6
			c6.3,7,7.8,16.8,6.7,26.1c0.5,0.6,1.2,0.9,2.3,0.5c1.2-0.4,2.4,0.3,3.3,0.8c3.1,1.7,3.5,5,7.9,5c0.1,0,0.3,0,0.4,0c0,0,0,0,0,0
			c1.4-0.9,2.4-1.2,4-1.1c1.6,0.1,3,0.8,4.4,1.5c3.1,1.3,6.2,2.3,9.4,3.1c5.3,1.3,10.8,0.3,16,1.5c1.6,0.3,2.4,1.6,2.8,3.1
			c3.3-1.8,6.6-3.7,10.3-4.7c1.4-0.4,2.8-0.3,4.2,0.2c0.3,0.1,0.6,0.2,0.8,0.4c2.4-1.1,5.6,0.2,8,1.8c29.6-12.6,59.1-25.3,88.6-38
			c15.8-6.7,31.5-13.5,47.3-20.2c7.7-3.3,15.4-6.6,23.1-9.9c7.2-3,14.6-6.1,22.5-5.8c0.4,0,0.6,0.4,0.6,0.8c0.3,0.2,0.7,0.5,0.9,1
			c3.1,5.3-8.3,8.6-11,9.8c-18.6,8.3-37.4,16.2-56.2,24.2c-36.9,15.7-73.9,31.2-110.7,47.2c1.8,2.5,1.7,6-0.2,8.8
			c-2.1,3.1-4.4,2.8-6.6,1.3c-0.4,0.7-1,1.3-1.5,1.9c-3.2,3.7-7.1,9.4-11.4,11.8c-6.3,3.5-11.6-3.4-15.3-8.7
			c-0.4,0.2-0.7,0.5-1.1,0.7c-1.8,1.1-4.1,1.3-6.1,1.5c-2.3,0.3-4.7,0.6-7,0.8c0.8,2.6,1,5.3-0.3,7.9c-2.7,5.2-7.6,8.4-12.7,11.1
			c-4.4,2.4-8.8,4.6-13.2,1c-3.3-2.7-5.5-6.1-6.5-10c-1.5-0.5-2.9-1.6-4.3-2.6c-0.8,1.9-1.8,3.9-2.8,5.6c2.8,9.6,5.2,19.5,8.1,29.1
			c3.4,11.7,7.2,23.2,11.1,34.7c0.4,1.2-0.9,2.4-2,2c-5.8-1.8-9.5-6.4-11.7-11.9c-1.4-3.4-2.6-6.9-4-10.3
			c3.3,13.7,4.3,28.1,4.3,42.1c0,11.1-0.6,22.3-1.7,33.4c1.8,12.6,3.9,25.3,5.1,37.9c2.1,4.6,3.8,9.3,4.7,14.5
			c0.7,4.3,0.5,8.5-0.1,12.8c-0.7,6-0.3,11.2,1.5,17.1c1.7,5.7,4.6,11.1-2.6,13.8c-0.5,0.2-1,0.3-1.5,0.5c2,1.5,4.2,3,6.4,4.3
			c1.1,0.6,0.8,2.1-0.3,2.5c-10.7,3.8-21.8,2.4-32.5-0.7c-3.2,1.8-6.6,3.3-9.9,3.5c-6.7,0.5-13.3-4.1-19-8c-6.3,0.5-12.7,0.4-18.9-1
			c-0.5-0.1-1.1-0.6-1.2-1.2c-0.1-1-0.3-2-0.4-2.9c-1-0.1-2-0.1-3-0.1c-0.7,0-1.5-0.6-1.4-1.4c0-0.4,0.1-0.8,0.1-1.2
			c-3.1-0.1-6.2-0.1-9.3-0.1c-2.6,0-10.2,0.1-11.8-2.5c-0.6-1.1-0.1-2.8,0.1-3.9c0-0.3,0.1-0.6,0.1-0.8c-1.6-0.4-3.2-0.6-4.9-0.6
			C787.5,916.3,786.6,915.3,787,914.2z"/>
		<g>
			<path fill="#F9EB3B" d="M1348.4,848.2c-3.4-15.8-18.9-22.8-30.6-32.2c3-0.6,6.2-1.6,6.5-3.5c0.4-2.7-0.6-5.1-0.8-7.8
				c-0.2-3.8,0.8-7.7,1.7-11.3c0.7-3,1.3-5.9,1.7-8.9c0.5-4-0.2-7.1,1.8-10.9c1.1-2.1,1.1-4.2,0.4-6.2c1.2-3,1.9-6.1,2.2-9.6
				c0.9-10.5,0.4-21.6-0.6-32c-0.2-2.3-0.2-3.9,0.2-6.1c0.2-0.8-0.1-1.8-0.5-2.4c-0.4-0.7-1.9-1.5-1.4-2.5c0.4-0.9,0.3-2.8,0.1-3.7
				c-1.3-5.8-4.7-11.7-8.6-16.8c3.7-0.6,7.3-1.8,10.3-4.6c2.4-2.3,13.7-10.7,8.1-14.4c-1.2-0.8-3.3-1-4.7-1.5c-3-1-6.1-1.8-9.2-2.7
				c-5.5-1.6-11-3-16.5-4.6c-5.3-1.5-10.9-2.5-15.8-5c-2.7-1.3-5.2-3-7.8-4.3c-0.3-1.7-0.5-3.4-0.9-5.1c1.5-1.2,2.5-2.9,2.8-4.8
				c0.1-0.8,0-2.5-0.4-3.9c3.2-6.1,1.6-13.4,0.9-20.3c-0.8-8.1,1.8-16.2-5.6-21.8c-6.5-4.9-18.3-4.3-25.8-3.4
				c-7,0.8-13.5,3.1-19.5,6.6c-2.9-0.1-5.7,0.3-8.5,1.8c-2.4,1.3-4.4,3.4-6.1,5.8c-10.9,6.2-10.3,23.3-8.5,33.9
				c1.7,10.4,6.2,20.5,12.8,29c-7.5,2.3-14.9,4.8-22.3,7.4c-5.2,1.8-10.4,4.9-15.4,1.3c-1.5-1-4.1-1.3-5.4,0.1
				c-4.5,4.5,2.9,7.5,6.3,7.5c6,0.1,12,0.1,18,0c-3.8,4.3-6.1,10.2-9.7,14.6c-3.4,4.1-3.7,9.3-3.1,14.6c-1,1.2-1.8,2.5-1.9,3.7
				c-0.4,3-0.2,6.1-0.2,9.1c-3.5,2.8-7,5.5-10.3,8.6c-2.7,2.4-3.9,5.3-3,8.8c0.9,3.6,1.3,5.7-0.6,8.9c-1,1.7-2.6,3.6-3,5.6
				c-0.3,1.5-0.3,2.9,0.2,4.1c-2,1.6-3.6,3.8-5.2,6c-2.4,3.3-6.2,10.7-10.6,11.3c-2.5,0.3-4.4,0.5-6.2,2.3
				c-24.3-14.8-48.3-30-72.3-45.2c-23.9-15.1-46.4-32.5-70.6-47.1c-2.1-2.8-5.2-5.2-8.7-3.9c-4.2,1.4-5.7,5.9-2.7,9.4
				c5.6,6.7,14.8,11.2,21.9,16.1c8.6,5.9,17.2,11.7,25.8,17.5c32.5,22,65.5,43.2,97.8,65.5c-0.5,3.1,0.3,6.4,1.9,9.2
				c-6.9,4.3-13.6,9.4-18.4,16c-3.1,4.2-4.9,9.4-6.2,14.5c-1.2,4.5-2.5,10-1.5,14.7c1,5.2,3.4,9.6,5.9,14.2
				c3.1,5.8,5.1,11.9,6.4,18.3c1.1,5.1,1.3,10.1,4.2,14.7c1.9,3,5.5,5.1,8.9,6.4c0,0,0,0.1,0,0.1c-0.7,3.4-1.7,6.1-0.4,9.5
				c2.8,7.2,13.6,3.8,19.1,4c10,0.3,19.4,5.6,29.3,6.2c2.7,0.1,5-0.6,7.2-1.7c2,0.4,4,0.7,5.9,0.9c4.9,0.7,9.8,0.9,14.7,0.7
				c8.1-0.3,16.1-3.4,23.8-6.5c0,0.7,0,1.5,0.1,2.2c0.7,6,5.6,8.4,11.1,8.5c3.8,0,7.6-0.5,11.4-0.5c2.2,0,6.1,2.8,8.4,1.4
				c1-0.6,1.7-1.4,2.3-2.3c1.1,0.5,2.2,1.2,2.6,1.3c1.5,0.4,4,0.1,5.2-0.8c2.6-1.8,4.7-3.8,8.2-2.8c1.8,0.5,3.5,1.3,5.4,0.9
				c0.6-0.1,0.9-0.7,0.9-1.2c0-1.3-0.1-2.7-0.2-4.1c2.2-0.1,4.7-0.1,6.5-1.1c0.6-0.4,0.9-1.1,0.7-1.8c-0.5-2.4-2.2-4.9-3.3-7
				c-2-4.1-3.5-7.3-2.9-11.1c2.9-0.4,5.6-0.9,7.5-4.2c1.1-1.9,1.3-4.3,1.5-6.5c0.2-2.1,0.6-4.2,0.9-6.3c0.1,0,0.2,0,0.4,0.1
				c1.7,0.4,3.9,1.7,5.7,1.7c2.4,0,6.1-3.2,8.2-4.5c2.1-1.3,5.1-2.6,6.7-4.7c0.6-0.8,1.2-1.6,1.2-2.7c0-2.3,1.2-2.5,2.9-3.6
				c1.7-1,2.1-3.6,2.4-5.3c0.6-5,1.3-10.1,1.7-15.1c0.2-2.5-1.5-4.5-3.1-6.2c-0.8-0.8-1.5-1.6-2.3-2.4c3.9,1.5,7.6,3.5,11.1,6
				C1347.3,850.8,1348.6,849.4,1348.4,848.2z M1185.3,811.9c-1.5-0.6-3-1.4-4.5-2.1c1-1.7,1.8-3.4,2.4-5.3c1.1-3.7,1.9-5.6,6.1-6.7
				c0.7-0.2,1.2-0.9,1.2-1.6c0.2-4,3.2-7,6-10.1c1.8,0.6,3.7,0.7,5.5-0.2c1.2-0.6,2.6-1.4,3.2-2.6c1.2-2.2,1.9-6.9,4.8-7.5
				c0.8-0.2,1.3-1.1,1.1-1.9c-0.8-3.3-1-3.4,0.9-5.9c0.7-0.9,1.1-1.8,1.5-2.8c-3.3,14.5-7.8,29.5-2.5,42.8c-0.9,0.2-1.8,0.5-2.8,0.8
				c-1.9,0.6-3.8,1.4-5.7,2.3c-2.2-0.8-4.5-1.4-6.9-1.7c-4.3-0.5-7-0.1-9.6,2.6C1185.8,812,1185.6,812,1185.3,811.9z"/>
		</g>
	</g>
</g>
</svg>
